<svg id="illustration" xmlns="http://www.w3.org/2000/svg" viewBox="0 0 600 450"><defs><style>.cls-1{fill:#9da1a2;}.cls-1,.cls-10,.cls-11,.cls-12,.cls-13,.cls-14,.cls-15,.cls-16,.cls-17,.cls-18,.cls-19,.cls-2,.cls-20,.cls-21,.cls-22,.cls-23,.cls-24,.cls-25,.cls-26,.cls-27,.cls-28,.cls-29,.cls-3,.cls-31,.cls-32,.cls-4,.cls-5,.cls-6,.cls-7,.cls-8,.cls-9{fill-rule:evenodd;}.cls-2{fill:#a688ba;}.cls-3{fill:#fff;}.cls-4{fill:#50a9aa;}.cls-5{fill:#ccad14;}.cls-6{fill:#3aa0ba;}.cls-7{fill:#b3889d;}.cls-8{fill:#e2a942;}.cls-9{fill:#dddddc;}.cls-10{fill:#c4c4c4;}.cls-11{fill:#72c9a6;}.cls-12{fill:#54b08b;}.cls-13{fill:#709d53;}.cls-14{fill:#a0cf7e;}.cls-15{opacity:0.1;}.cls-16{fill:#8b6651;}.cls-17{fill:#c3987b;}.cls-18{fill:#3f8f6f;}.cls-19{fill:#738d57;}.cls-20{fill:#dfbda5;}.cls-21{fill:#e8cab6;}.cls-22{fill:#2b2b2b;}.cls-23{fill:#4f5253;}.cls-24{fill:#858686;}.cls-25{fill:#6f7173;}.cls-26,.cls-30{fill:#99c26d;}.cls-27{fill:#ac923c;}.cls-28{fill:#b8c745;}.cls-29{fill:#35785d;}.cls-31{fill:#474747;}.cls-32{fill:#e8f078;}</style></defs><title>16Personalities Academy</title><g id="signs"><polygon class="cls-1" points="571.3 188.88 575.28 157.69 581.39 157.62 573.39 189.91 571.3 188.88"/><polygon class="cls-2" points="563.17 167.4 589.59 176.84 598.77 150.01 566.15 138.1 563.17 167.4"/><polygon class="cls-3" points="576.52 151 579.08 156.19 584.72 153.56 584.96 156.09 580.19 158.44 583.21 164.4 580.65 166.47 577.25 159.87 572.92 161.97 571.56 159.75 576.1 157.6 573.48 152.47 576.52 151"/><polygon class="cls-1" points="505.85 139.51 500.81 108.47 506.66 106.67 508.15 139.9 505.85 139.51"/><polygon class="cls-4" points="491.96 121.22 519.97 122.78 521.16 94.44 486.5 92.28 491.96 121.22"/><polygon class="cls-3" points="500.11 101.7 504.03 105.95 508.69 101.83 509.64 104.19 505.74 107.8 510.32 112.66 508.46 115.36 503.32 110 499.77 113.24 497.83 111.5 501.57 108.15 497.61 103.98 500.11 101.7"/><polygon class="cls-1" points="417.33 110.13 414.98 78.77 420.96 77.48 419.59 110.72 417.33 110.13"/><polygon class="cls-5" points="405.07 90.71 432.84 94.67 436.46 66.54 402.11 61.4 405.07 90.71"/><polygon class="cls-3" points="414.86 71.96 418.4 76.54 423.4 72.83 424.14 75.26 419.95 78.52 424.1 83.76 422.01 86.29 417.35 80.51 413.53 83.44 411.75 81.53 415.77 78.52 412.18 74.02 414.86 71.96"/><polygon class="cls-1" points="93.01 132.77 82.55 103.11 87.99 100.3 95.34 132.75 93.01 132.77"/><polygon class="cls-6" points="76.1 117.23 103.94 113.8 100.1 85.69 65.6 89.71 76.1 117.23"/><polygon class="cls-3" points="80.66 96.57 85.28 100.06 89.13 95.18 90.48 97.33 87.28 101.58 92.65 105.55 91.3 108.54 85.3 104.17 82.37 107.99 80.16 106.62 83.25 102.66 78.61 99.26 80.66 96.57"/><polygon class="cls-1" points="68.63 199.54 71.05 168.18 77.16 167.81 70.78 200.46 68.63 199.54"/><polygon class="cls-7" points="59.45 178.49 86.3 186.6 94.14 159.34 60.97 149.07 59.45 178.49"/><polygon class="cls-3" points="71.97 161.44 74.78 166.49 80.28 163.59 80.64 166.1 76 168.69 79.31 174.49 76.86 176.68 73.14 170.26 68.92 172.57 67.45 170.42 71.87 168.05 69 163.06 71.97 161.44"/><polygon class="cls-1" points="32.76 234.66 18.73 206.51 23.79 203.06 35.07 234.35 32.76 234.66"/><polygon class="cls-8" points="14.07 221.31 41.28 214.48 34.01 187.07 0.26 195.29 14.07 221.31"/><polygon class="cls-3" points="16.05 200.25 21.06 203.15 24.29 197.83 25.89 199.8 23.24 204.41 29.06 207.69 28.08 210.82 21.59 207.23 19.16 211.38 16.79 210.28 19.37 205.98 14.35 203.17 16.05 200.25"/><polygon class="cls-1" points="429.16 179.41 417.27 150.3 422.57 147.23 431.49 179.27 429.16 179.41"/><polygon class="cls-7" points="411.51 164.71 439.16 159.93 433.95 132.05 399.69 137.73 411.51 164.71"/><polygon class="cls-3" points="415.06 143.86 419.84 147.12 423.46 142.06 424.91 144.14 421.92 148.53 427.48 152.24 426.27 155.29 420.06 151.22 417.33 155.18 415.05 153.91 417.94 149.81 413.14 146.64 415.06 143.86"/></g><g id="roads"><polygon class="cls-9" points="127.71 450 240.78 325.86 91.73 303.02 134.21 260.02 96.71 251.2 30.88 284.51 25.9 234.38 40.45 231.51 46.95 255.04 79.1 238.03 91.35 218.65 59.2 198.42 77.57 195.34 119.29 216.27 102.83 233.23 176.89 243.18 205.4 218.11 121.58 181.82 155.26 146.35 82.55 132.96 102.06 125.3 166.36 134.87 197.8 120.88 170.19 106.55 193.92 69.64 209.23 72.08 196.21 101.95 232.29 120.88 180.91 145.2 154.88 177.73 242.33 199.97 191.24 264.42 159.09 262.31 142.25 288.79 244.82 300.08 359.44 201.31 372.08 181.82 314.09 165.87 408.63 104.95 430.06 106.55 351.98 163.96 400.97 175.05 374.18 230.21 311.04 287 446.13 263.27 420.3 233.23 462.21 209.5 462.21 190.66 420.3 181.82 436.56 171.23 475.6 176.2 510.05 168.76 496.65 136.69 514.26 136.69 540.28 178.39 478.67 193.04 485.17 215.62 450.34 235.8 496.27 268.98 528.04 270.89 541.81 245.86 507.75 230.21 565.93 185.44 579.32 188.07 541.81 227.3 567.46 235.8 552.91 290.64 463.36 284.9 359.75 332.74 464.5 450 127.71 450"/><polygon class="cls-10" points="463.36 284.9 496.27 268.98 528.04 270.89 552.91 290.64 463.36 284.9"/><polygon class="cls-10" points="541.81 245.86 567.46 235.8 541.81 227.3 507.75 230.21 541.81 245.86"/><polygon class="cls-10" points="462.21 209.5 485.17 215.62 450.34 235.8 420.3 233.23 462.21 209.5"/><polygon class="cls-10" points="478.67 193.04 475.6 176.2 510.05 168.76 540.28 178.39 478.67 193.04"/><polygon class="cls-10" points="400.97 175.05 372.08 181.82 359.44 201.31 374.18 230.21 400.97 175.05"/><polygon class="cls-10" points="102.83 233.23 79.1 238.03 90.5 218.11 118 215.62 102.83 233.23"/><polygon class="cls-11" points="240.78 325.86 91.73 303.02 134.21 260.02 153.69 240.06 176.89 243.18 205.4 218.11 121.58 181.82 155.26 146.35 166.36 134.87 197.8 120.88 170.19 106.55 193.92 69.64 209.23 72.08 196.21 101.95 232.29 120.88 180.91 145.2 154.88 177.73 242.33 199.97 191.24 264.42 159.09 262.31 142.25 288.79 244.82 300.08 240.78 325.86"/><polygon class="cls-12" points="176.89 243.18 205.4 218.11 242.33 199.97 191.24 264.42 176.89 243.18"/><polygon class="cls-12" points="159.09 262.31 134.21 260.02 91.73 303.02 142.25 288.79 159.09 262.31"/><polygon class="cls-12" points="180.91 145.2 155.26 146.35 121.58 181.82 154.88 177.73 180.91 145.2"/><polygon class="cls-12" points="196.21 101.95 171.7 107.33 197.8 120.88 232.29 120.88 196.21 101.95"/><polygon class="cls-11" points="178.47 68.16 224.75 75.64 207.9 56.81 178.47 68.16"/></g><g id="_" data-name="?"><polygon class="cls-13" points="295.53 14.29 314.49 0 326.51 21.36 311.04 27.98 317.59 39.13 308.9 41.55 300.41 28.72 308.54 25 315.09 18.62 309.97 11.57 299.55 18.62 295.53 14.29"/><polygon class="cls-13" points="307.75 52.19 313.12 47.22 318.95 54.63 309.9 58.16 307.75 52.19"/><polygon class="cls-14" points="309.97 11.57 314.49 0 293.43 13.78 299.73 19.67 309.97 11.57"/><polygon class="cls-14" points="315.09 18.62 311.04 27.98 300.41 28.72 315.09 18.62"/><polygon class="cls-14" points="313.12 47.22 309.9 58.16 305.98 51.74 313.12 47.22"/></g><g id="character"><polygon class="cls-15" points="197.8 415.39 296.62 395.86 402.11 420.61 296.62 434.21 197.8 415.39"/><polygon class="cls-16" points="372.08 338.22 382.98 318.38 371.87 313.58 370.93 325.86 372.08 338.22"/><polygon class="cls-17" points="406.52 279.35 377.82 307.7 374.08 309.77 371.87 313.58 372.08 338.22 359.44 325.86 357.29 313.58 359.44 279.35 378.97 277.19 406.52 279.35"/><polygon class="cls-18" points="371.87 313.58 359.44 298.58 358.15 290.25 359.44 279.35 377.82 307.7 371.87 313.58"/><polygon class="cls-19" points="359.44 201.31 420.3 279.35 359.44 279.35 357.29 244.47 359.44 201.31"/><polygon class="cls-20" points="242.33 151.1 246.35 104.95 238.31 96.98 227.69 94.68 197.8 167.86 224.37 163.03 242.33 151.1"/><polygon class="cls-12" points="246.35 104.95 248.93 94.68 241.9 89.55 231.71 85.72 227.69 94.68 246.35 104.95"/><polygon class="cls-21" points="248.93 94.68 258.04 88.88 262.71 83.12 262 75.64 258.04 68.16 231.71 85.72 248.93 94.68"/><polygon class="cls-17" points="273.05 75.08 274.02 79.98 283.49 84.58 287.11 84.37 289.42 81.77 276.49 69.64 273.05 75.08"/><polygon class="cls-20" points="262.71 83.12 268.53 91.66 267.26 95.33 260.13 95.64 248.93 94.68 262.71 83.12"/><polygon class="cls-20" points="258.04 68.16 276.49 69.64 274.02 79.98 262.71 83.12 258.04 68.16"/><polygon class="cls-19" points="262.63 181.82 242.33 151.1 179.18 174.86 254.39 230.21 262.63 204.91 262.63 181.82"/><polygon class="cls-20" points="339.93 197.41 345.09 175.44 362.89 149.15 372.08 149.15 372.08 128.64 361.74 128.64 263.83 132.98 254.39 132.96 256.11 153.62 265.87 153.62 288.26 187.49 339.93 197.41"/><polygon class="cls-17" points="362.89 149.15 335.55 160.35 314.09 177.73 309.88 190.66 340.1 197.41 362.89 149.15"/><polygon class="cls-22" points="304.33 101.95 304.33 136.16 314.09 177.73 362.89 149.15 362.89 128.64 360.98 122.77 362.89 114.01 362.89 88.23 329.59 90.17 304.33 101.95"/><polygon class="cls-23" points="314.09 177.73 265.87 153.62 263.83 132.98 264.91 127.21 262.63 120.88 260.13 95.64 289.98 95.58 304.33 101.95 314.09 177.73"/><polygon class="cls-23" points="362.89 88.23 309.88 72.08 304.33 88.23 304.33 101.95 362.89 88.23"/><polygon class="cls-24" points="304.33 101.95 260.13 95.64 309.88 72.08 304.33 101.95"/><polygon class="cls-25" points="362.89 114.01 350.83 123.48 350.83 131.52 362.89 128.64 362.89 114.01"/><polygon class="cls-1" points="263.83 132.98 277.64 136.69 277.64 128.64 262.63 120.88 263.83 132.98"/><polygon class="cls-17" points="265.87 153.62 254.39 132.96 256.11 153.62 265.87 153.62"/><polygon class="cls-17" points="362.89 149.15 372.08 128.64 372.08 149.15 362.89 149.15"/><polygon class="cls-26" points="262.63 181.82 272.57 186.92 281.85 185.69 345.09 198.42 350.83 201.31 359.44 201.31 359.44 279.35 300.89 279.35 248.07 267.29 262.63 181.82"/><polygon class="cls-27" points="287.87 186.9 300.89 199.97 340.1 197.41 349.32 199.27 296.3 209.5 274.89 184.29 287.87 186.9"/><polygon class="cls-28" points="349.32 199.27 359.44 201.31 294.55 218.65 262.63 181.82 274.89 184.29 296.3 209.5 349.32 199.27"/><polygon class="cls-13" points="359.44 279.35 359.44 303.02 358.15 311.3 359.44 318.48 359.44 325.86 294.6 325.86 242.33 312.64 243.35 304.59 245.59 297.72 245.35 288.79 248.07 267.29 359.44 279.35"/><polygon class="cls-29" points="242.33 312.64 265.87 340.39 296.87 363.79 331.31 346.9 359.44 325.86 242.33 312.64"/><polygon class="cls-18" points="242.33 312.64 237.17 356.5 258.5 374.45 281.85 386.1 296.87 363.79 309.61 393.24 333.61 384.02 359.44 367.19 359.44 325.86 296.87 363.79 242.33 312.64"/><polygon class="cls-12" points="281.85 386.1 270.13 407.65 250.37 412.36 237.17 404.07 232 390.71 237.17 356.5 281.85 386.1"/><polygon class="cls-12" points="309.61 393.24 316.96 413.44 333.61 421.96 346.24 412.8 359.44 394.71 359.44 367.19 309.61 393.24"/><polygon class="cls-19" points="232 390.71 213.63 408.54 229.22 412.8 254.67 407.9 232 390.71"/><polygon class="cls-26" points="270.13 407.65 270.13 417.06 213.63 417.06 213.63 408.54 270.13 407.65"/><polygon class="cls-19" points="359.44 394.71 377.82 413.44 359.44 417.06 333.61 413.44 359.44 394.71"/><rect class="cls-30" x="316.96" y="413.44" width="60.85" height="8.52"/><polygon class="cls-31" points="273.81 215.62 262.63 181.82 281.85 185.69 281.85 216.79 277.64 218.11 273.81 215.62"/><polygon class="cls-31" points="335.55 224.62 345.09 198.42 359.44 201.31 345.09 226.01 339.74 227.3 335.55 224.62"/><polygon class="cls-31" points="260.59 314.7 242.33 312.64 245.35 288.79 255.5 295.41 260.59 314.7"/><polygon class="cls-31" points="348.42 307.71 359.44 303.02 359.44 325.86 342.12 323.9 348.42 307.71"/><polygon class="cls-22" points="273.81 215.62 260.94 245.86 248.07 267.29 265.87 334.72 298.31 332.74 335.78 340.2 359.44 279.35 349.32 254.37 345.09 226.01 307.78 225.19 273.81 215.62"/><polygon class="cls-25" points="273.81 215.62 263.67 268.98 300.89 279.35 341.69 279.35 345.09 226.01 273.81 215.62"/><polygon class="cls-31" points="263.67 268.98 265.87 334.72 335.78 340.2 341.69 279.35 263.67 268.98"/><path class="cls-32" d="M274.48,260l-1.91,21.05,15.69,1.53,2.87-20.86Zm11.67,19.33L277.71,276,276.2,264l9.95,2.1Z"/><path class="cls-32" d="M314.86,264.42,313,285.47,328.64,287l2.87-20.86Zm11.67,19.33-8.45-3.38-1.5-11.93,9.95,2.1Z"/><polygon class="cls-23" points="263.67 268.98 248.07 267.29 273.81 215.62 263.67 268.98"/><polygon class="cls-23" points="341.69 279.35 359.44 279.35 345.09 226.01 341.69 279.35"/></g></svg>